<svg width="208" height="208" viewBox="0 0 208 208" fill="none" xmlns="http://www.w3.org/2000/svg">
<g filter="url(#filter0_d_1_95)">
<rect width="200" height="200" rx="26" transform="matrix(1 0 0 -1 4 200)" fill="white"/>
<rect x="0.5" y="-0.5" width="199" height="199" rx="25.5" transform="matrix(1 0 0 -1 4 199)" stroke="black"/>
</g>
<path d="M28.9531 139V59H45.8672V92.0078H80.2031V59H97.0781V139H80.2031V105.953H45.8672V139H28.9531ZM154.422 82.0078C154.109 78.8568 152.768 76.4089 150.398 74.6641C148.029 72.9193 144.813 72.0469 140.75 72.0469C137.99 72.0469 135.659 72.4375 133.758 73.2187C131.857 73.974 130.398 75.0286 129.383 76.3828C128.393 77.737 127.898 79.2734 127.898 80.9922C127.846 82.4245 128.146 83.6745 128.797 84.7422C129.474 85.8099 130.398 86.7344 131.57 87.5156C132.742 88.2708 134.096 88.9349 135.633 89.5078C137.169 90.0547 138.81 90.5234 140.555 90.9141L147.742 92.6328C151.232 93.4141 154.435 94.4557 157.352 95.7578C160.268 97.0599 162.794 98.6615 164.93 100.562C167.065 102.464 168.719 104.703 169.891 107.281C171.089 109.859 171.701 112.815 171.727 116.148C171.701 121.044 170.451 125.289 167.977 128.883C165.529 132.451 161.987 135.224 157.352 137.203C152.742 139.156 147.182 140.133 140.672 140.133C134.214 140.133 128.589 139.143 123.797 137.164C119.031 135.185 115.307 132.255 112.625 128.375C109.969 124.469 108.576 119.638 108.445 113.883H124.813C124.995 116.565 125.763 118.805 127.117 120.602C128.497 122.372 130.333 123.714 132.625 124.625C134.943 125.51 137.56 125.953 140.477 125.953C143.341 125.953 145.828 125.536 147.938 124.703C150.073 123.87 151.727 122.711 152.898 121.227C154.07 119.742 154.656 118.036 154.656 116.109C154.656 114.312 154.122 112.802 153.055 111.578C152.013 110.354 150.477 109.312 148.445 108.453C146.44 107.594 143.979 106.812 141.063 106.109L132.352 103.922C125.607 102.281 120.281 99.7161 116.375 96.2266C112.469 92.737 110.529 88.0365 110.555 82.125C110.529 77.2812 111.818 73.0495 114.422 69.4297C117.052 65.8099 120.659 62.9844 125.242 60.9531C129.826 58.9219 135.034 57.9062 140.867 57.9062C146.805 57.9062 151.987 58.9219 156.414 60.9531C160.867 62.9844 164.331 65.8099 166.805 69.4297C169.279 73.0495 170.555 77.2422 170.633 82.0078H154.422Z" fill="#5572DD"/>
<defs>
<filter id="filter0_d_1_95" x="0" y="0" width="208" height="208" filterUnits="userSpaceOnUse" color-interpolation-filters="sRGB">
<feFlood flood-opacity="0" result="BackgroundImageFix"/>
<feColorMatrix in="SourceAlpha" type="matrix" values="0 0 0 0 0 0 0 0 0 0 0 0 0 0 0 0 0 0 127 0" result="hardAlpha"/>
<feOffset dy="4"/>
<feGaussianBlur stdDeviation="2"/>
<feComposite in2="hardAlpha" operator="out"/>
<feColorMatrix type="matrix" values="0 0 0 0 0 0 0 0 0 0 0 0 0 0 0 0 0 0 0.25 0"/>
<feBlend mode="normal" in2="BackgroundImageFix" result="effect1_dropShadow_1_95"/>
<feBlend mode="normal" in="SourceGraphic" in2="effect1_dropShadow_1_95" result="shape"/>
</filter>
</defs>
</svg>
